<svg width="50" height="50" viewBox="0 0 50 50" fill="none" xmlns="http://www.w3.org/2000/svg">
<g clip-path="url(#clip0_271_8278)">
<path d="M46.4628 18.2547L47.1944 16.9349C47.3891 16.5835 47.2622 16.1407 46.9108 15.946C46.6181 15.7837 46.2629 15.8453 46.0396 16.0729C42.8513 6.60716 33.9482 0.134277 23.8203 0.134277C17.557 0.134277 11.6686 2.57328 7.23991 7.00212C2.81108 11.431 0.37207 17.3193 0.37207 23.5825C0.37207 28.9134 2.11563 33.937 5.4141 38.1101C8.61325 42.1575 13.1154 45.0747 18.0913 46.3244C19.1595 46.5927 20.2661 46.7588 21.4744 46.8322C21.4895 46.8331 21.5044 46.8336 21.5192 46.8336C21.9009 46.8336 22.2212 46.5363 22.2447 46.1503C22.269 45.7492 21.9638 45.4045 21.5627 45.38C20.4452 45.3121 19.4256 45.1595 18.4457 44.9133C8.66087 42.4558 1.82698 33.6843 1.82698 23.5825C1.82698 11.4554 11.6932 1.58918 23.8203 1.58918C33.2903 1.58918 41.6186 7.6221 44.6329 16.4545C44.3356 16.4021 44.0251 16.539 43.8706 16.8177C43.6758 17.169 43.8028 17.6119 44.1541 17.8065L45.4534 18.5268C45.4921 18.5499 45.744 18.6945 46.0483 18.5972C46.314 18.5126 46.4369 18.3019 46.4628 18.2547Z" fill="#D3CDBF"/>
<path d="M36.1938 7.73148L8.06561 35.8597C7.78152 36.1439 7.78152 36.6044 8.06561 36.8885C8.20761 37.0305 8.39384 37.1015 8.57997 37.1015C8.7661 37.1015 8.95233 37.0305 9.09433 36.8885L37.2225 8.76029C37.5066 8.4761 37.5066 8.01558 37.2225 7.73148C36.9384 7.44758 36.4778 7.44758 36.1938 7.73148Z" fill="#D3CDBF"/>
<path d="M9.68101 12.4979C6.69884 12.4979 5.68555 16.3796 7.25801 16.3796C7.65957 16.3796 7.98546 16.0542 7.98546 15.6522C7.98546 14.7172 8.74609 13.9567 9.68091 13.9567C11.2406 13.9567 11.9731 15.9012 10.7945 16.9308L6.77741 20.4409C6.27285 20.8819 6.58575 21.7161 7.25607 21.7161H12.1058C12.5075 21.7161 12.8332 21.3867 12.8332 20.9849C12.8332 20.583 12.5075 20.2574 12.1058 20.2574H9.20118L11.7542 18.0294C13.9391 16.1225 12.5914 12.4979 9.68101 12.4979Z" fill="#818181"/>
<path d="M20.1558 18.3174H18.947L18.9433 13.2265C18.9429 12.825 18.6174 12.4998 18.2158 12.4998C17.8143 12.4998 17.4884 12.8253 17.4884 13.2272V18.3174H14.8789C14.894 18.2742 16.0822 14.8619 16.094 14.8177C16.3518 13.8363 15.0141 13.4865 14.7159 14.3459L13.1657 18.8101C13.0018 19.2824 13.3531 19.7761 13.8529 19.7761H17.4882C17.488 21.0217 17.4257 21.2267 17.7021 21.5029C18.1597 21.9608 18.9469 21.6327 18.9469 20.9867V19.7762H20.1557C20.5575 19.7762 20.8831 19.4506 20.8831 19.0488C20.8832 18.6322 20.5481 18.3174 20.1558 18.3174Z" fill="#818181"/>
<path d="M31.9727 24.4785C31.8403 24.2643 31.6064 24.134 31.3546 24.134H26.8995C26.4982 24.134 26.1729 24.4594 26.1729 24.8607C26.1729 25.2621 26.4982 25.5874 26.8995 25.5874H30.1797L26.8285 32.3008C26.6493 32.6599 26.7951 33.0963 27.1541 33.2755C27.2584 33.3276 27.3691 33.3522 27.4781 33.3522C27.7448 33.3522 28.0017 33.2048 28.1288 32.95L32.0048 25.1854C32.1173 24.9599 32.1052 24.6926 31.9727 24.4785Z" fill="#818181"/>
<path d="M42.8841 20.6922C41.6314 20.9199 40.7215 22.0108 40.7215 23.284V25.6757C40.7215 26.9493 41.6323 28.0406 42.8852 28.2683L43.176 28.3212C41.8505 35.4364 36.3912 41.1158 29.3931 42.7631C29.215 41.4575 28.0999 40.4841 26.7821 40.4841H23.6228C22.3051 40.4841 21.19 41.4572 21.0121 42.7628C20.4943 46.5596 23.4143 49.2102 26.5913 49.0285C38.8347 48.3281 48.6303 38.5052 49.2724 26.2339C49.4471 22.895 46.5307 20.0292 42.8841 20.6922Z" fill="#6C7A88"/>
<path d="M26.5911 49.0283C38.8345 48.3279 48.6301 38.505 49.2722 26.2337C49.3255 25.2139 49.0893 24.239 48.6333 23.3945C47.3911 23.6725 46.4361 24.749 46.3663 26.0818C45.8008 36.8894 37.2279 45.5053 26.425 46.1233C25.0937 46.1994 24.0235 47.1596 23.75 48.4007C24.6038 48.8583 25.5843 49.0859 26.5911 49.0283Z" fill="#596775"/>
</g>
<defs>
<clipPath id="clip0_271_8278">
<rect width="48.9078" height="48.9078" fill="white" transform="translate(0.371094 0.13208)"/>
</clipPath>
</defs>
</svg>
