<svg width="256" height="273" viewBox="0 0 256 273" fill="none" xmlns="http://www.w3.org/2000/svg">
<g clip-path="url(#clip0_271_7301)">
<path d="M99.2721 239.354L19.5172 185.306C18.87 184.878 18.3236 184.314 17.9158 183.654C17.5081 182.994 17.2487 182.253 17.1557 181.483C17.0627 180.713 17.1383 179.931 17.3772 179.193C17.6161 178.455 18.0127 177.778 18.5394 177.208L66.4356 125.612C67.3118 124.664 68.5011 124.065 69.7843 123.925C71.0675 123.784 72.3583 124.113 73.4186 124.849L135.45 166.886C136.527 167.598 137.31 168.675 137.655 169.919C138.001 171.163 137.885 172.49 137.329 173.655L107.156 237.261C106.822 237.961 106.34 238.581 105.743 239.076C105.146 239.572 104.448 239.931 103.698 240.13C102.948 240.329 102.164 240.363 101.4 240.229C100.635 240.095 99.9094 239.796 99.2721 239.354ZM30.7066 179.957L100.093 226.979L125.634 173.165L71.2238 136.293L30.7066 179.957Z" fill="#F9C900"/>
<path d="M107.145 180.032C105.97 179.236 105.159 178.005 104.891 176.611C104.623 175.217 104.92 173.774 105.717 172.598L117.727 154.875C120.116 151.35 121.007 147.02 120.204 142.837C119.4 138.655 116.968 134.964 113.443 132.575C109.917 130.186 105.587 129.295 101.405 130.098C97.2231 130.902 93.5314 133.334 91.1423 136.859L79.1317 154.582C78.3354 155.758 77.1048 156.568 75.7108 156.836C74.3167 157.104 72.8734 156.807 71.6983 156.011C70.5231 155.214 69.7125 153.984 69.4446 152.59C69.1768 151.196 69.4737 149.752 70.2701 148.577L82.2807 130.854C86.2625 124.978 92.4152 120.925 99.3855 119.586C106.356 118.247 113.572 119.731 119.448 123.713C125.324 127.695 129.377 133.848 130.716 140.818C132.055 147.788 130.571 155.005 126.589 160.88L114.578 178.604C113.782 179.779 112.551 180.589 111.157 180.857C109.763 181.125 108.32 180.828 107.145 180.032Z" fill="#F9C900"/>
<line x1="68.0789" y1="164.508" x2="98.9707" y2="185.443" stroke="#F9C900" stroke-width="14.6986" stroke-linecap="round"/>
<line x1="50.1326" y1="174.391" x2="96.443" y2="205.774" stroke="#F9C900" stroke-width="14.6986" stroke-linecap="round"/>
</g>
<path d="M186.87 62.9071C150.817 76.5715 135.272 108.79 132.005 123.192C150.762 107.581 183.647 105.102 198.43 103.863C215.939 102.396 219.906 86.8524 220.194 79.4219C219.93 61.738 199.412 59.2535 186.87 62.9071Z" fill="#F9C900"/>
<path d="M179.957 123.787C163.147 117.886 145.998 124.644 139.524 128.761C151.467 128.827 163.044 137.738 168.296 141.699C174.516 146.392 181.645 142.08 184.533 139.54C191.099 133.212 185.391 126.228 179.957 123.787Z" fill="#F9C900"/>
<path d="M135.924 91.9819C137.002 102.096 131.001 110.741 127.866 113.799C129.393 107.154 125.957 99.5539 124.443 96.1169C122.65 92.0464 125.979 88.6488 127.769 87.3765C132.144 84.5565 135.278 88.6425 135.924 91.9819Z" fill="#F9C900"/>
<defs>
<clipPath id="clip0_271_7301">
<rect width="128.458" height="128.458" fill="white" transform="translate(72.2832 78.8198) rotate(34.1244)"/>
</clipPath>
</defs>
</svg>
