<svg width="50" height="50" viewBox="0 0 50 50" fill="none" xmlns="http://www.w3.org/2000/svg">
<g clip-path="url(#clip0_271_8234)">
<path d="M48.9768 18.403C48.7942 18.2073 48.531 18.1064 48.2631 18.1064H45.3221C44.1345 13.204 41.3575 8.76134 37.4354 5.5211C33.2317 2.04856 27.9065 0.134946 22.4392 0.13208C22.3492 0.13208 22.2583 0.15128 22.1816 0.198373C21.9747 0.325514 21.9005 0.569098 21.9787 0.777338L24.604 7.76647C24.674 7.95302 24.8527 8.07654 25.0524 8.07654C31.2607 8.07654 36.7005 12.2347 38.3774 18.1064H35.8522C35.5842 18.1064 35.3212 18.2073 35.1386 18.403C34.7944 18.7717 34.7961 19.3121 35.0977 19.6731L41.322 27.1239C41.5039 27.3417 41.7735 27.4677 42.0577 27.4677C42.3419 27.4677 42.6114 27.3418 42.7934 27.1239L49.0178 19.6731C49.3192 19.3121 49.3208 18.7717 48.9768 18.403Z" fill="#507BE9"/>
<path d="M21.9485 22.58C27.766 22.58 32.482 17.8756 32.482 12.0725C32.482 6.26932 27.766 1.56494 21.9485 1.56494C16.131 1.56494 11.415 6.26932 11.415 12.0725C11.415 17.8756 16.131 22.58 21.9485 22.58Z" fill="#FFEE78"/>
<path d="M32.4817 12.0725C32.4817 6.26935 27.7657 1.56494 21.9482 1.56494V22.58C27.7657 22.58 32.4817 17.8756 32.4817 12.0725Z" fill="#FCD232"/>
<path d="M21.9484 24.0128C15.3482 24.0128 9.97852 18.6564 9.97852 12.0725C9.97852 5.48853 15.3482 0.13208 21.9484 0.13208C28.5485 0.13208 33.9182 5.48853 33.9182 12.0725C33.9182 18.6564 28.5485 24.0128 21.9484 24.0128ZM21.9484 2.99777C16.9322 2.99777 12.8513 7.06867 12.8513 12.0725C12.8513 17.0762 16.9322 21.1471 21.9484 21.1471C26.9645 21.1471 31.0455 17.0762 31.0455 12.0725C31.0455 7.06867 26.9645 2.99777 21.9484 2.99777Z" fill="#FCD232"/>
<path d="M31.0453 12.0725C31.0453 17.0762 26.9644 21.1471 21.9482 21.1471V24.0128C28.5484 24.0128 33.9181 18.6564 33.9181 12.0725C33.9181 5.48853 28.5484 0.13208 21.9482 0.13208V2.99777C26.9644 2.99777 31.0453 7.06867 31.0453 12.0725Z" fill="#F7B90F"/>
<path d="M25.7789 14.4606C25.7789 12.3537 24.0606 10.6397 21.9485 10.6397C21.4205 10.6397 20.9909 10.2111 20.9909 9.68443C20.9909 9.15771 21.4205 8.7292 21.9485 8.7292C22.402 8.7292 22.7966 9.04996 22.8866 9.49195C23.0444 10.2674 23.8031 10.7684 24.5802 10.611C25.3575 10.4535 25.8598 9.69713 25.702 8.92158C25.4414 7.64196 24.5457 6.61604 23.3849 6.14454V5.86351C23.3849 5.0722 22.7418 4.43066 21.9485 4.43066C21.1553 4.43066 20.5121 5.0722 20.5121 5.86351V6.1433C19.1099 6.71137 18.1182 8.08413 18.1182 9.68443C18.1182 11.7913 19.8365 13.5053 21.9485 13.5053C22.4765 13.5053 22.9061 13.9339 22.9061 14.4606C22.9061 14.9873 22.4765 15.4158 21.9485 15.4158C21.495 15.4158 21.1005 15.095 21.0105 14.6531C20.8527 13.8776 20.0945 13.3768 19.3169 13.534C18.5394 13.6915 18.0372 14.4479 18.1951 15.2234C18.4556 16.503 19.3513 17.5291 20.512 18.0006V18.2815C20.512 19.0728 21.1552 19.7143 21.9484 19.7143C22.7417 19.7143 23.3848 19.0728 23.3848 18.2815V18.0017C24.7871 17.4336 25.7789 16.0608 25.7789 14.4606Z" fill="#FCD232"/>
<path d="M21.9482 10.6396V13.5053C22.4763 13.5053 22.9058 13.9339 22.9058 14.4606C22.9058 14.9873 22.4763 15.4158 21.9482 15.4158V19.7143C22.7415 19.7143 23.3846 19.0728 23.3846 18.2815V18.0017C24.7868 17.4336 25.7786 16.0609 25.7786 14.4606C25.7786 12.3537 24.0603 10.6396 21.9482 10.6396Z" fill="#F7B90F"/>
<path d="M22.8863 9.49195C23.0441 10.2674 23.8028 10.7684 24.5799 10.611C25.3573 10.4535 25.8595 9.69713 25.7017 8.92158C25.4411 7.64196 24.5454 6.61604 23.3846 6.14454V5.86351C23.3846 5.0722 22.7415 4.43066 21.9482 4.43066V8.7292C22.4018 8.7292 22.7963 9.04996 22.8863 9.49195Z" fill="#F7B90F"/>
<path d="M48.6334 33.6555C47.5717 32.143 45.4819 31.7755 43.9656 32.8345L33.6913 40.011C33.2888 40.2921 32.8095 40.4428 32.3182 40.4428H24.7256V47.1294H32.922C34.3959 47.1294 35.834 46.6771 37.0413 45.8338L47.8103 38.3118C49.3266 37.2527 49.6952 35.1681 48.6334 33.6555Z" fill="#FABE8C"/>
<path d="M33.6913 40.0112C33.2888 40.2923 32.8095 40.443 32.3182 40.443L24.7256 39.8558V43.3087H32.4821C35.9141 43.3087 38.7064 40.5234 38.7064 37.0997C38.7064 36.9067 38.6962 36.716 38.6789 36.5275L33.6913 40.0112Z" fill="#E6A578"/>
<path d="M48.6333 33.6555C47.5717 32.143 45.4818 31.7754 43.9656 32.8345L35.3246 38.8701C35.6467 38.3565 35.8335 37.7499 35.8335 37.0995C35.8335 35.253 34.333 33.7562 32.482 33.7562H24.3425L23.4056 33.0552C21.5397 31.6593 19.2277 30.8905 16.8953 30.8905C14.9291 30.8905 12.9988 31.4238 11.3129 32.4329C11.3129 32.4329 9.71551 33.389 8.7607 33.9604C8.32806 34.2194 8.06348 34.6857 8.06348 35.189V45.6966C8.06348 46.4879 8.70659 47.1294 9.49986 47.1294H32.9219C34.3958 47.1294 35.8339 46.6771 37.0412 45.8337L47.8102 38.3118C49.3265 37.2527 49.6951 35.168 48.6333 33.6555Z" fill="#FFD2AA"/>
<path d="M24.7256 47.1294H32.922C34.3959 47.1294 35.834 46.6771 37.0413 45.8338L47.8103 38.3118C49.3265 37.2527 49.695 35.1681 48.6333 33.6555C47.5716 32.143 45.4818 31.7755 43.9655 32.8345L35.3246 38.8701C35.6468 38.3565 35.8336 37.7499 35.8336 37.0995C35.8336 35.2531 34.3331 33.7562 32.482 33.7562H24.7256V47.1294Z" fill="#FABE8C"/>
<path d="M38.6781 36.5275L35.3239 38.8704C35.3031 38.9035 35.2823 38.9367 35.2604 38.969C34.6582 39.8584 33.6382 40.443 32.4813 40.443H22.4266C21.6334 40.443 20.9902 41.0846 20.9902 41.8759C20.9902 42.6672 21.6334 43.3087 22.4266 43.3087H32.4813C35.9134 43.3087 38.7056 40.5234 38.7056 37.0997C38.7056 36.9067 38.6955 36.716 38.6781 36.5275Z" fill="#FABE8C"/>
<path d="M9.49955 49.0399H1.64732C0.854054 49.0399 0.210938 48.3984 0.210938 47.6071V31.3681C0.210938 30.5768 0.854054 29.9353 1.64732 29.9353H9.49955C10.2928 29.9353 10.9359 30.5768 10.9359 31.3681V47.6071C10.9359 48.3984 10.2928 49.0399 9.49955 49.0399Z" fill="#6496F7"/>
<path d="M38.6789 36.5275L35.3247 38.8704C35.3039 38.9035 35.2831 38.9367 35.2612 38.969C34.6589 39.8584 33.6389 40.443 32.4821 40.443H24.7256V43.3087H32.4821C35.9141 43.3087 38.7064 40.5234 38.7064 37.0997C38.7064 36.9067 38.6962 36.716 38.6789 36.5275Z" fill="#E6A578"/>
</g>
<defs>
<clipPath id="clip0_271_8234">
<rect width="49.0285" height="48.9078" fill="white" transform="translate(0.210938 0.13208)"/>
</clipPath>
</defs>
</svg>
