<svg width="50" height="50" viewBox="0 0 50 50" fill="none" xmlns="http://www.w3.org/2000/svg">
<g clip-path="url(#clip0_271_8204)">
<path d="M12.4922 27.6238V35.6216H40.6707C41.4758 35.6216 42.1285 34.9705 42.1285 34.1674C42.1285 33.4614 42.1285 28.3284 42.1285 27.6238L27.3103 25.6848L12.4922 27.6238Z" fill="#8B9BA9"/>
<path d="M39.2129 27.236V32.7132H12.4922V35.6215H40.6707C41.4758 35.6215 42.1285 34.9705 42.1285 34.1674C42.1285 33.4983 42.1285 28.28 42.1285 27.6237L39.2129 27.236Z" fill="#6C7A88"/>
<path d="M43.4408 8.46094H16.8661C16.061 8.46094 15.4083 9.11201 15.4083 9.91508V14.4467H5.68668C4.32302 14.4467 3.14147 15.3897 2.84225 16.7169L1.73894 21.6112C1.45555 22.8683 1.3125 24.153 1.3125 25.4416V35.6215H15.4083C15.4083 35.3848 15.4083 31.7882 15.4083 27.6237H43.4409C44.2459 27.6237 44.8986 26.9726 44.8986 26.1695V9.91508C44.8985 9.11191 44.2459 8.46094 43.4408 8.46094Z" fill="#FF7E40"/>
<path d="M48.7861 21.3788H44.8986V18.7694H46.8424C47.245 18.7694 47.5712 18.4438 47.5712 18.0423C47.5712 17.6408 47.245 17.3152 46.8424 17.3152H44.8986V14.7058H47.8142C48.2168 14.7058 48.5431 14.3803 48.5431 13.9787C48.5431 13.5772 48.2168 13.2517 47.8142 13.2517H44.8986V10.6422H48.7861C49.1887 10.6422 49.515 10.3166 49.515 9.91508C49.515 9.51355 49.1887 9.18801 48.7861 9.18801H44.702C44.4498 8.7538 43.9801 8.46094 43.4409 8.46094H41.9831V24.7155H15.4083C15.4083 19.6001 15.4083 14.5847 15.4083 14.4466H12.4929V27.6238H10.3062C8.18126 27.6238 6.2482 28.4543 4.81204 29.805H1.3125V35.6216H15.4083C15.4083 35.4243 15.4083 31.8112 15.4083 27.6238H24.3932H43.4409C43.9801 27.6238 44.4498 27.3309 44.702 26.8967H47.8142C48.2168 26.8967 48.5431 26.5712 48.5431 26.1696C48.5431 25.7681 48.2168 25.4425 47.8142 25.4425H44.8986V22.833H48.7861C49.1887 22.833 49.515 22.5075 49.515 22.106C49.515 21.7044 49.1887 21.3788 48.7861 21.3788Z" fill="#FF6344"/>
<path d="M1.2152 35.6214H6.55012V32.7131H1.2152C0.812667 32.7131 0.486328 33.0387 0.486328 33.4402V34.8944C0.486328 35.296 0.812667 35.6214 1.2152 35.6214Z" fill="#8B9BA9"/>
<path d="M12.4929 17.3549H5.51287L4.12695 23.5027H12.4929V17.3549Z" fill="#9DC6FB"/>
<path d="M9.75129 20.5944H4.78255L4.12695 23.5027H12.4929V17.3549H9.75129V20.5944Z" fill="#80B4FB"/>
<path d="M35.0825 40.7109C37.9003 40.7109 40.1846 38.4322 40.1846 35.6214C40.1846 32.8105 37.9003 30.5319 35.0825 30.5319C32.2647 30.5319 29.9805 32.8105 29.9805 35.6214C29.9805 38.4322 32.2647 40.7109 35.0825 40.7109Z" fill="#4D5967"/>
<path d="M36.1264 30.6392C35.5284 31.7413 35.6956 33.1474 36.6295 34.0789L33.5372 37.1636C32.6034 36.232 31.1938 36.0651 30.0889 36.6618C30.5717 38.9706 32.6275 40.7108 35.0834 40.7108C37.8967 40.7108 40.1854 38.4277 40.1854 35.6213C40.1853 33.1714 38.441 31.1208 36.1264 30.6392Z" fill="#35404A"/>
<path d="M35.0821 37.8026C36.2897 37.8026 37.2687 36.8261 37.2687 35.6214C37.2687 34.4168 36.2897 33.4402 35.0821 33.4402C33.8745 33.4402 32.8955 34.4168 32.8955 35.6214C32.8955 36.8261 33.8745 37.8026 35.0821 37.8026Z" fill="#FFF9EB"/>
<path d="M10.3062 40.7109C13.124 40.7109 15.4083 38.4322 15.4083 35.6214C15.4083 32.8105 13.124 30.5319 10.3062 30.5319C7.48838 30.5319 5.2041 32.8105 5.2041 35.6214C5.2041 38.4322 7.48838 40.7109 10.3062 40.7109Z" fill="#4D5967"/>
<path d="M11.3501 30.6392C10.752 31.7413 10.9192 33.1474 11.8532 34.0789L8.76082 37.1636C7.827 36.232 6.41746 36.0651 5.3125 36.6618C5.7953 38.9706 7.8511 40.7108 10.307 40.7108C13.1203 40.7108 15.4091 38.4277 15.4091 35.6213C15.4091 33.1714 13.6647 31.1208 11.3501 30.6392Z" fill="#35404A"/>
<path d="M10.3057 37.8026C11.5134 37.8026 12.4924 36.8261 12.4924 35.6214C12.4924 34.4168 11.5134 33.4402 10.3057 33.4402C9.09812 33.4402 8.11914 34.4168 8.11914 35.6214C8.11914 36.8261 9.09812 37.8026 10.3057 37.8026Z" fill="#FFF9EB"/>
<path d="M22.7826 16.5888V17.3158H23.7058C24.1083 17.3158 24.4345 17.6412 24.4345 18.0428C24.4345 18.4445 24.1083 18.7699 23.7058 18.7699H22.7826V20.2238C22.7826 20.6255 22.4563 20.9509 22.0539 20.9509C21.6514 20.9509 21.3252 20.6256 21.3252 20.2238V15.8619C21.3252 15.4604 21.6514 15.135 22.0539 15.135H24.2888C24.6913 15.135 25.0174 15.4604 25.0174 15.8619C25.0174 16.2635 24.6913 16.589 24.2888 16.589H22.7826V16.5888Z" fill="#FFF9EB"/>
<path d="M29.728 19.7114C30.0112 19.9964 30.0093 20.4567 29.7236 20.7394C29.5813 20.8799 29.3959 20.9502 29.2104 20.9502C29.0228 20.9502 28.8354 20.8784 28.6929 20.7351L27.4614 19.4962H27.0727V20.2231C27.0727 20.6247 26.7463 20.9502 26.3439 20.9502C25.9415 20.9502 25.6152 20.6248 25.6152 20.2231V15.8612C25.6152 15.4596 25.9415 15.1343 26.3439 15.1343H27.7652C28.9639 15.1343 29.9393 16.1127 29.9393 17.3152C29.9393 18.0246 29.5996 18.6558 29.0749 19.0545L29.728 19.7114ZM28.4816 17.3152C28.4816 16.9143 28.1601 16.5881 27.7652 16.5881H27.0727V18.0421H27.7652C28.1601 18.0421 28.4816 17.716 28.4816 17.3152Z" fill="#FFF9EB"/>
<path d="M34.4569 20.2231C34.4569 20.6247 34.1308 20.9502 33.7282 20.9502H31.4933C31.0909 20.9502 30.7646 20.6248 30.7646 20.2231V15.8612C30.7646 15.4596 31.0909 15.1343 31.4933 15.1343H33.7282C34.1308 15.1343 34.4569 15.4596 34.4569 15.8612C34.4569 16.2628 34.1308 16.5882 33.7282 16.5882H32.2221V17.3153H33.1452C33.5478 17.3153 33.8739 17.6406 33.8739 18.0423C33.8739 18.4439 33.5478 18.7694 33.1452 18.7694H32.2221V19.4963H33.7282C34.1308 19.4962 34.4569 19.8216 34.4569 20.2231Z" fill="#FFF9EB"/>
<path d="M38.9803 20.2231C38.9803 20.6247 38.6542 20.9502 38.2517 20.9502H36.0168C35.6143 20.9502 35.2881 20.6248 35.2881 20.2231V15.8612C35.2881 15.4596 35.6143 15.1343 36.0168 15.1343H38.2517C38.6542 15.1343 38.9803 15.4596 38.9803 15.8612C38.9803 16.2628 38.6542 16.5882 38.2517 16.5882H36.7455V17.3153H37.6687C38.0712 17.3153 38.3973 17.6406 38.3973 18.0423C38.3973 18.4439 38.0712 18.7694 37.6687 18.7694H36.7455V19.4963H38.2517C38.6542 19.4962 38.9803 19.8216 38.9803 20.2231Z" fill="#FFF9EB"/>
</g>
<defs>
<clipPath id="clip0_271_8204">
<rect width="49.0285" height="48.9078" fill="white" transform="translate(0.485352 0.13208)"/>
</clipPath>
</defs>
</svg>
