<svg width="25" height="23" viewBox="0 0 25 23" fill="none" xmlns="http://www.w3.org/2000/svg">
<path d="M9.394 19.9582V16.8914C9.39398 16.1114 10.1198 15.4776 11.019 15.4724H14.313C15.2165 15.4724 15.949 16.1077 15.949 16.8914V16.8914V19.9677C15.9488 20.63 16.5582 21.1712 17.3215 21.1868H19.5175C21.7066 21.1868 23.4812 19.6474 23.4812 17.7486V17.7486V9.0246C23.4695 8.27759 23.0652 7.57612 22.3832 7.1198L14.873 1.87207C13.5573 0.958334 11.6869 0.958334 10.3712 1.87207L2.89389 7.12932C2.20936 7.58379 1.80433 8.28643 1.7959 9.03413V17.7486C1.7959 19.6474 3.57053 21.1868 5.75965 21.1868H7.95563C8.73789 21.1868 9.37204 20.6367 9.37204 19.9582V19.9582" stroke="#3669C9" stroke-width="2" stroke-linecap="round" stroke-linejoin="round"/>
</svg>
