<svg width="344" height="88" viewBox="0 0 344 88" fill="none" xmlns="http://www.w3.org/2000/svg">
<path d="M51.5556 14.71L50.2749 88C44.7549 86.8498 39.235 85.6816 33.715 84.5314C33.715 72.9035 33.715 61.2935 33.715 49.6656L25.2366 77.0371L22.0077 76.426L18.5442 51.337L19.4822 82.231L0 78.6006L7.2517 27.8475L21.5567 23.9476L25.1465 55.3987L32.1997 20.6587L51.5556 14.71Z" fill="#FF6C4C"/>
<path d="M19.482 82.2489L28.6097 81.0987L33.6968 49.6655L18.5439 51.3549L19.482 82.2489Z" fill="url(#paint0_linear_574_15369)"/>
<path d="M21.5381 23.9653L30.8643 27.1823L25.1279 55.4164L21.5381 23.9653Z" fill="#8216F5"/>
<path d="M25.2363 77.0365C27.401 76.4614 29.5837 75.9043 31.7484 75.3292C32.3978 66.7745 33.0472 58.2197 33.6966 49.665L25.2363 77.0365Z" fill="#3B00C3"/>
<path d="M0 78.6186C4.29329 69.1833 8.56855 59.7659 12.8618 50.3306C15.0626 60.97 17.2634 71.6095 19.4822 82.2669C12.9881 81.0448 6.49406 79.8227 0 78.6186Z" fill="url(#paint1_linear_574_15369)"/>
<path d="M0 78.6186C4.2933 69.1833 8.56855 59.7659 12.8618 50.3306C9.86736 50.672 6.87288 51.0135 3.89644 51.355L0 78.6186Z" fill="url(#paint2_linear_574_15369)"/>
<path d="M19.4826 82.2488C17.2819 71.6094 15.0811 60.9699 12.8623 50.3125C14.7564 50.654 16.6505 50.9954 18.5446 51.3369C18.8513 61.6529 19.1579 71.9509 19.4826 82.2488Z" fill="url(#paint3_linear_574_15369)"/>
<path d="M3.89648 51.3552C6.89097 51.0137 9.88545 50.6723 12.8619 50.3308C10.9858 42.8364 9.10977 35.3601 7.23371 27.8657L3.89648 51.3552Z" fill="url(#paint4_linear_574_15369)"/>
<path d="M7.2334 27.8653L21.5384 23.9653L18.5439 38.307L7.2334 27.8653Z" fill="url(#paint5_linear_574_15369)"/>
<path d="M18.5444 51.3552V38.3075L7.25195 27.8657C9.12802 35.3601 11.0041 42.8364 12.8801 50.3308C14.7562 50.6723 16.6503 51.0137 18.5444 51.3552Z" fill="url(#paint6_linear_574_15369)"/>
<path d="M21.5384 23.9653L18.5439 38.307L25.1282 55.4164L21.5384 23.9653Z" fill="url(#paint7_linear_574_15369)"/>
<path d="M25.1282 55.4167L22.0074 76.444L18.5439 51.355L25.1282 55.4167Z" fill="url(#paint8_linear_574_15369)"/>
<path d="M18.5439 38.3076V51.3553L25.1282 55.417L18.5439 38.3076Z" fill="url(#paint9_linear_574_15369)"/>
<path d="M25.1286 55.4165L25.2368 77.0369L22.0078 76.4438L25.1286 55.4165Z" fill="url(#paint10_linear_574_15369)"/>
<path d="M25.2362 77.037L25.1279 55.4166L33.6965 49.6655L25.2362 77.037Z" fill="url(#paint11_linear_574_15369)"/>
<path d="M33.6965 49.6656L25.1279 55.3987L32.1812 20.6587C32.8306 28.0272 33.462 35.4138 34.1114 42.7823C34.1114 42.9081 34.1114 43.0519 34.0933 43.1777C34.0392 45.4062 33.9129 47.5629 33.6965 49.6656Z" fill="url(#paint12_linear_574_15369)"/>
<path d="M51.5551 14.71L32.1992 20.6767C32.8306 28.189 33.48 35.7013 34.1114 43.2137C39.9199 33.7064 45.7285 24.1992 51.5551 14.71Z" fill="url(#paint13_linear_574_15369)"/>
<path d="M51.5561 14.71C45.7475 24.2172 39.9209 33.7064 34.1123 43.2137C39.7405 44.8132 45.3506 46.3947 50.9788 47.9942L51.5561 14.71Z" fill="url(#paint14_linear_574_15369)"/>
<path d="M33.6973 84.5313C33.6973 72.9034 33.6973 61.2935 33.6973 49.6655L50.2571 88C44.7372 86.8497 39.2172 85.6995 33.6973 84.5313Z" fill="url(#paint15_linear_574_15369)"/>
<path d="M50.2571 87.9997L33.6973 49.6653C33.8235 47.5086 33.9679 45.352 34.0941 43.1953C39.7223 44.7948 45.3325 46.3764 50.9607 47.9759" fill="url(#paint16_linear_574_15369)"/>
<path d="M35.8805 9.28243C30.6312 15.6445 29.6029 27.3623 29.6029 27.3623L26.6445 26.4098C26.6445 26.4098 28.8092 14.1708 34.5096 7.08984" fill="#8216F5"/>
<path d="M38.2432 3.58523C38.8024 3.29768 39.5961 2.93823 40.5882 2.65068C40.8769 2.56082 44.0157 1.6083 46.956 2.32719C51.2132 3.36956 55.3983 8.23999 56.6791 13.5238C57.1481 15.4468 57.1842 17.1182 57.112 18.2325C55.8854 17.3339 54.6587 16.4352 53.4501 15.5546C53.4501 15.1053 53.396 14.4583 53.2336 13.7035C53.2156 13.5957 53.1254 13.2722 52.9991 12.8408C52.5301 11.3312 51.9528 9.55195 50.5458 7.97041C48.6697 5.84971 45.7113 4.376 41.0933 5.74188C40.6784 5.86768 40.2996 6.01146 40.2996 6.01146C40.1914 6.06537 40.0651 6.10132 39.9569 6.15523" fill="#8216F5"/>
<path d="M12.0866 30.7767C12.0866 29.8602 12.3211 29.1413 12.8262 28.5302C13.5838 27.6316 14.6481 27.7035 15.3156 28.656C16.0732 29.7523 16.0011 31.5136 15.1532 32.5739C14.3595 33.5624 13.1689 33.4725 12.5376 32.3583C12.2309 31.8371 12.0505 31.262 12.0866 30.7767Z" fill="#8216F5"/>
<path d="M43.0415 22.8332C43.0235 23.5521 42.8431 24.3069 42.2478 24.9C41.5082 25.6548 40.48 25.5829 39.8666 24.7203C39.091 23.6419 39.091 21.8268 39.8847 20.8023C40.6604 19.7779 41.6886 19.7959 42.4643 20.8203C42.8431 21.3056 43.0235 21.9166 43.0415 22.8332Z" fill="#8216F5"/>
<path d="M12.6641 26.4096C12.6641 26.4096 17.3903 0.386082 28.9353 0.00866848C40.4803 -0.368745 41.0034 11.6725 42.2481 17.6213L39.2176 18.5558C39.2176 18.5558 38.3156 1.26672 29.0796 2.83028C19.8436 4.39385 15.9472 25.511 15.9472 25.511L12.6641 26.4096Z" fill="#8216F5"/>
<path d="M76.4135 55.3986L72.0481 50.7618C73.2567 48.4255 74.4833 46.1071 75.692 43.7707C74.772 36.9773 73.852 30.1838 72.932 23.3904C71.3265 21.7549 69.703 20.1015 68.0975 18.466C65.1932 19.149 62.307 19.8499 59.4027 20.5328C56.787 18.5918 54.1714 16.6508 51.5737 14.6919L50.293 87.982C55.5604 87.2811 60.8097 86.5802 66.0772 85.8792C69.8112 85.376 73.5273 84.8908 77.2614 84.3876C78.001 82.5005 78.7406 80.5955 79.4802 78.7084C78.4339 70.9445 77.4237 63.1805 76.4135 55.3986Z" fill="url(#paint17_linear_574_15369)"/>
<path d="M51.5552 14.71L59.2218 20.3712L60.6108 74.7187C60.6108 74.7187 60.7731 76.6956 59.9253 77.2527C56.7144 80.8292 53.4854 84.4236 50.2744 88C50.6893 63.576 51.1223 39.134 51.5552 14.71Z" fill="url(#paint18_linear_574_15369)"/>
<path d="M76.4127 55.3989C74.9515 53.8533 73.5084 52.3077 72.0472 50.7621C73.2559 48.4257 74.4825 46.1073 75.6911 43.771C74.7531 36.4743 73.797 29.1777 72.859 21.881C71.2716 20.7488 69.6661 19.5985 68.0786 18.4663C65.3006 19.1313 62.5046 19.7962 59.7266 20.4612C59.7446 20.7488 59.7626 21.0543 59.7987 21.3418C59.9611 23.5704 60.0873 25.7809 60.1775 27.9556C62.0356 27.5063 63.8936 27.057 65.7516 26.6077C66.7077 27.5781 67.6637 28.5307 68.6198 29.5012C68.8543 32.8979 69.0888 36.2946 69.3233 39.6913C68.4575 41.0033 67.6096 42.3152 66.7438 43.6272C64.7775 43.8069 62.8112 43.9866 60.845 44.1664C60.9352 46.7184 61.0434 49.2884 61.1336 51.8404C61.2238 53.3681 61.332 54.8777 61.4222 56.4053C63.4787 56.2616 65.5171 56.1358 67.5736 55.992C68.4755 57.0164 69.3775 58.0228 70.2794 59.0472C70.532 62.2283 70.8025 65.4094 71.0551 68.5904C70.4418 69.5609 69.8284 70.5134 69.2151 71.4839C66.5634 71.9871 63.9116 72.4903 61.2599 72.9936C61.2238 73.4608 61.2418 74.0539 61.332 74.7189C61.4222 75.3838 61.5846 75.941 61.7469 76.3903C66.9061 79.0501 72.0653 81.728 77.2245 84.3878C77.9641 82.5008 78.7037 80.5957 79.4433 78.7087C78.4331 70.9447 77.4229 63.1808 76.4127 55.3989Z" fill="url(#paint19_linear_574_15369)"/>
<path d="M60.8452 44.166C60.5024 44.202 60.1777 44.2379 59.835 44.2738C59.9432 48.3894 60.0514 52.5051 60.1416 56.6027C60.5746 56.5128 60.9895 56.423 61.4224 56.3511C61.242 52.2894 61.0436 48.2277 60.8452 44.166Z" fill="#3D00BD"/>
<path d="M59.7268 20.461C59.5644 20.425 59.384 20.407 59.2217 20.3711C59.2938 22.977 59.3479 25.583 59.4201 28.1889C59.6727 28.0991 59.9252 28.0272 60.1597 27.9373C60.0334 25.4572 59.8711 22.9591 59.7268 20.461Z" fill="#3D00BD"/>
<path d="M63.3708 77.2347C62.8296 76.9471 62.2884 76.6596 61.7473 76.372C61.5849 75.2577 61.4225 74.1255 61.2602 73.0112C61.0257 73.0292 60.7731 73.0472 60.5386 73.0651C60.5747 73.7121 60.5928 74.3412 60.6288 74.9882C60.6288 75.114 60.6288 75.2937 60.6108 75.4914C60.5927 75.725 60.5747 75.9227 60.5567 75.9946C60.4665 76.4978 60.1237 76.9831 59.9614 77.1987C56.7324 80.7931 53.5034 84.3875 50.2744 87.9999C59.2759 86.7958 68.2593 85.6096 77.2608 84.4055C72.6068 82.0152 67.9888 79.6249 63.3708 77.2347Z" fill="#3D00BD"/>
<path d="M127.108 48.4198V87.1713H117.226V66.299L107.779 81.8548H106.79L97.3826 66.3384V87.1319H87.4609V48.3804H97.4221L107.304 64.9207L117.265 48.3804H127.108V48.4198Z" fill="#3D00BD"/>
<path d="M157.861 67.1257C161.102 69.0554 162.762 71.9303 162.762 75.829C162.762 79.2552 161.576 82.012 159.205 84.0598C156.833 86.1076 153.671 87.1709 149.718 87.1709H133.313V48.4194H148.611C152.485 48.4194 155.608 49.404 157.94 51.3731C160.272 53.3421 161.458 56.0201 161.458 59.4069C161.458 62.6756 160.272 65.2354 157.861 67.1257ZM148.334 57.2803H143.235V63.3845H148.334C149.204 63.3845 149.955 63.1088 150.587 62.5968C151.18 62.0455 151.497 61.2972 151.497 60.3521C151.497 59.4463 151.18 58.698 150.627 58.1467C150.034 57.556 149.283 57.2803 148.334 57.2803ZM149.402 78.3101C150.39 78.3101 151.22 77.995 151.852 77.4043C152.485 76.8136 152.801 76.0259 152.801 75.0414C152.801 74.0569 152.485 73.2692 151.852 72.6785C151.22 72.0878 150.39 71.8121 149.402 71.8121H143.235V78.3495H149.402V78.3101Z" fill="#3D00BD"/>
<path d="M212.726 82.1699C208.774 86.0687 203.951 87.9984 198.259 87.9984C192.567 87.9984 187.744 86.0687 183.792 82.1699C179.839 78.2711 177.862 73.5059 177.862 67.7956C177.862 62.1246 179.839 57.3201 183.792 53.4213C187.744 49.5225 192.567 47.5928 198.259 47.5928C203.951 47.5928 208.774 49.5225 212.726 53.4213C216.679 57.3201 218.656 62.0852 218.656 67.7956C218.616 73.4665 216.64 78.2711 212.726 82.1699ZM190.749 75.3568C192.765 77.3259 195.255 78.3105 198.259 78.3105C201.263 78.3105 203.753 77.3259 205.769 75.3568C207.785 73.3878 208.774 70.8674 208.774 67.7956C208.774 64.7238 207.785 62.2034 205.769 60.2343C203.753 58.2652 201.263 57.2807 198.259 57.2807C195.255 57.2807 192.765 58.2652 190.749 60.2343C188.733 62.2034 187.744 64.7238 187.744 67.7956C187.744 70.8674 188.733 73.3878 190.749 75.3568Z" fill="#3D00BD"/>
<path d="M239.803 58.6982C242.808 58.6982 245.258 59.7222 247.156 61.77C249.053 63.8178 250.002 66.7715 250.002 70.5915V87.1318H240.792V71.7729C240.792 70.3158 240.396 69.2525 239.645 68.5043C238.894 67.756 237.867 67.4016 236.602 67.4016C235.139 67.4016 234.032 67.8348 233.242 68.7012C232.451 69.5676 232.056 70.8278 232.056 72.4424V87.1712H222.846V59.4859H232.056V62.2426C233.716 59.8797 236.325 58.6982 239.803 58.6982Z" fill="#3D00BD"/>
<path d="M255.022 87.1712V46.7656H264.233V87.1712H255.022Z" fill="#3D00BD"/>
<path d="M277.949 55.6265C276.882 56.6898 275.656 57.2017 274.194 57.2017C272.731 57.2017 271.506 56.6898 270.439 55.6265C269.371 54.5632 268.857 53.3423 268.857 51.8852C268.857 50.4281 269.371 49.2073 270.439 48.1833C271.506 47.1594 272.731 46.6475 274.194 46.6475C275.656 46.6475 276.882 47.1594 277.949 48.1833C279.016 49.2073 279.53 50.4675 279.53 51.8852C279.53 53.303 278.977 54.6025 277.949 55.6265ZM269.569 87.1712V59.4859H278.779V87.1712H269.569Z" fill="#3D00BD"/>
<path d="M301.073 58.6982C304.077 58.6982 306.528 59.7222 308.425 61.77C310.323 63.8178 311.271 66.7715 311.271 70.5915V87.1318H302.061V71.7729C302.061 70.3158 301.666 69.2525 300.915 68.5043C300.164 67.756 299.136 67.4016 297.871 67.4016C296.409 67.4016 295.302 67.8348 294.511 68.7012C293.721 69.5676 293.325 70.8278 293.325 72.4424V87.1712H284.115V59.4859H293.325V62.2426C295.025 59.8797 297.594 58.6982 301.073 58.6982Z" fill="#3D00BD"/>
<path d="M324.474 76.6957C325.383 78.9404 327.478 80.0825 330.68 80.0825C332.695 80.0825 334.356 79.4524 335.739 78.1528L342.42 82.7998C339.692 86.2261 335.7 87.9588 330.482 87.9588C325.778 87.9588 322.023 86.5805 319.177 83.8238C316.331 81.067 314.908 77.6015 314.908 73.3876C314.908 69.2132 316.291 65.7476 319.058 62.9121C321.825 60.116 325.383 58.6982 329.652 58.6982C333.802 58.6982 337.241 60.0766 339.929 62.8333C342.617 65.59 344.001 69.0556 344.001 73.2301C344.001 74.4509 343.882 75.593 343.605 76.6563H324.474V76.6957ZM324.355 70.3552H335.028C334.277 67.756 332.537 66.4958 329.81 66.4958C326.924 66.4564 325.106 67.756 324.355 70.3552Z" fill="#3D00BD"/>
<defs>
<linearGradient id="paint0_linear_574_15369" x1="18.5353" y1="65.9631" x2="33.7051" y2="65.9631" gradientUnits="userSpaceOnUse">
<stop stop-color="#7105F5"/>
<stop offset="1" stop-color="#5D04E0"/>
</linearGradient>
<linearGradient id="paint1_linear_574_15369" x1="4.78078" y1="59.6808" x2="12.8275" y2="83.2607" gradientUnits="userSpaceOnUse">
<stop stop-color="#FF703C"/>
<stop offset="1" stop-color="#FF2645"/>
</linearGradient>
<linearGradient id="paint2_linear_574_15369" x1="10.0446" y1="49.765" x2="-3.54897" y2="75.4862" gradientUnits="userSpaceOnUse">
<stop stop-color="#FF703C"/>
<stop offset="1" stop-color="#FF2645"/>
</linearGradient>
<linearGradient id="paint3_linear_574_15369" x1="12.4678" y1="76.9239" x2="21.2589" y2="51.4698" gradientUnits="userSpaceOnUse">
<stop stop-color="#FFBA47"/>
<stop offset="1" stop-color="#FF703C"/>
</linearGradient>
<linearGradient id="paint4_linear_574_15369" x1="1.4621" y1="30.4293" x2="10.7107" y2="51.2794" gradientUnits="userSpaceOnUse">
<stop stop-color="#FFBA47"/>
<stop offset="1" stop-color="#FF703C"/>
</linearGradient>
<linearGradient id="paint5_linear_574_15369" x1="7.24116" y1="31.1371" x2="21.5386" y2="31.1371" gradientUnits="userSpaceOnUse">
<stop stop-color="#FFBA47"/>
<stop offset="1" stop-color="#FF942C"/>
</linearGradient>
<linearGradient id="paint6_linear_574_15369" x1="14.5232" y1="51.7027" x2="12.4063" y2="27.4156" gradientUnits="userSpaceOnUse">
<stop stop-color="#FFBA47"/>
<stop offset="1" stop-color="#FF703C"/>
</linearGradient>
<linearGradient id="paint7_linear_574_15369" x1="16.3424" y1="46.6516" x2="30.2758" y2="32.6663" gradientUnits="userSpaceOnUse">
<stop stop-color="#FFBA47"/>
<stop offset="1" stop-color="#FF703C"/>
</linearGradient>
<linearGradient id="paint8_linear_574_15369" x1="17.4552" y1="63.6526" x2="24.3544" y2="64.2584" gradientUnits="userSpaceOnUse">
<stop stop-color="#FF942C"/>
<stop offset="0.9986" stop-color="#FF703C"/>
</linearGradient>
<linearGradient id="paint9_linear_574_15369" x1="20.0125" y1="54.1371" x2="23.6289" y2="39.5783" gradientUnits="userSpaceOnUse">
<stop stop-color="#FFBA47"/>
<stop offset="1" stop-color="#FF703C"/>
</linearGradient>
<linearGradient id="paint10_linear_574_15369" x1="22.5901" y1="76.5881" x2="27.6932" y2="56.0445" gradientUnits="userSpaceOnUse">
<stop stop-color="#FF703C"/>
<stop offset="1" stop-color="#FF2645"/>
</linearGradient>
<linearGradient id="paint11_linear_574_15369" x1="24.4713" y1="62.9238" x2="32.4795" y2="63.627" gradientUnits="userSpaceOnUse">
<stop stop-color="#FF942C"/>
<stop offset="0.9986" stop-color="#FF703C"/>
</linearGradient>
<linearGradient id="paint12_linear_574_15369" x1="26.6715" y1="37.8684" x2="34.6824" y2="38.5719" gradientUnits="userSpaceOnUse">
<stop stop-color="#FF942C"/>
<stop offset="0.9986" stop-color="#FFBA47"/>
</linearGradient>
<linearGradient id="paint13_linear_574_15369" x1="33.3567" y1="19.5166" x2="45.5743" y2="31.7796" gradientUnits="userSpaceOnUse">
<stop stop-color="#FFBA47"/>
<stop offset="1" stop-color="#FF942C"/>
</linearGradient>
<linearGradient id="paint14_linear_574_15369" x1="38.8179" y1="22.0299" x2="53.0533" y2="46.7783" gradientUnits="userSpaceOnUse">
<stop stop-color="#FFBA47"/>
<stop offset="1" stop-color="#FF703C"/>
</linearGradient>
<linearGradient id="paint15_linear_574_15369" x1="14.8055" y1="37.8289" x2="57.988" y2="105.23" gradientUnits="userSpaceOnUse">
<stop offset="0.3905" stop-color="#FF703C"/>
<stop offset="0.7912" stop-color="#FF4142"/>
<stop offset="1" stop-color="#FF2645"/>
</linearGradient>
<linearGradient id="paint16_linear_574_15369" x1="62.2986" y1="86.3974" x2="37.2344" y2="46.6101" gradientUnits="userSpaceOnUse">
<stop stop-color="#FFBA47"/>
<stop offset="1" stop-color="#FF703C"/>
</linearGradient>
<linearGradient id="paint17_linear_574_15369" x1="55.8806" y1="18.3322" x2="68.052" y2="98.4768" gradientUnits="userSpaceOnUse">
<stop offset="0.0333474" stop-color="#FFBA47"/>
<stop offset="0.1506" stop-color="#FF9345"/>
<stop offset="0.2692" stop-color="#FF7343"/>
<stop offset="0.3837" stop-color="#FF5C42"/>
<stop offset="0.4913" stop-color="#FF4E41"/>
<stop offset="0.5848" stop-color="#FF4941"/>
</linearGradient>
<linearGradient id="paint18_linear_574_15369" x1="55.4432" y1="88.0006" x2="55.4432" y2="14.7049" gradientUnits="userSpaceOnUse">
<stop offset="0.257" stop-color="#8216F5"/>
<stop offset="1" stop-color="#3D00BD"/>
</linearGradient>
<linearGradient id="paint19_linear_574_15369" x1="69.5924" y1="84.4113" x2="69.5924" y2="18.4707" gradientUnits="userSpaceOnUse">
<stop offset="0.257" stop-color="#8216F5"/>
<stop offset="1" stop-color="#3D00BD"/>
</linearGradient>
</defs>
</svg>
