<svg width="45" height="49" viewBox="0 0 45 49" fill="none" xmlns="http://www.w3.org/2000/svg">
<path d="M29.3438 8.19531L28.6271 48.9942C25.5386 48.3539 22.4501 47.7036 19.3616 47.0633C19.3616 40.5903 19.3616 34.1273 19.3616 27.6543L14.6179 42.8913L12.8112 42.5512L10.8733 28.5847L11.3982 45.7827L0.497559 43.7617L4.555 15.5087L12.5589 13.3377L14.5674 30.8458L18.5138 11.5068L29.3438 8.19531Z" fill="#FF6C4C"/>
<path d="M11.3981 45.7922L16.5053 45.1519L19.3515 27.6538L10.8733 28.5942L11.3981 45.7922Z" fill="url(#paint0_linear_599_11967)"/>
<path d="M12.5483 13.3472L17.7665 15.138L14.5569 30.8553L12.5483 13.3472Z" fill="#8216F5"/>
<path d="M14.6179 42.8909C15.8291 42.5707 17.0504 42.2606 18.2615 41.9404C18.6249 37.1782 18.9882 32.416 19.3516 27.6538L14.6179 42.8909Z" fill="#3B00C3"/>
<path d="M0.497559 43.7717C2.89973 38.5193 5.2918 33.2768 7.69397 28.0244C8.92533 33.9471 10.1567 39.8699 11.3982 45.8026C7.76462 45.1223 4.13109 44.442 0.497559 43.7717Z" fill="url(#paint1_linear_599_11967)"/>
<path d="M0.497559 43.7717C2.89973 38.5193 5.2918 33.2768 7.69397 28.0244C6.01851 28.2145 4.34305 28.4046 2.67768 28.5947L0.497559 43.7717Z" fill="url(#paint2_linear_599_11967)"/>
<path d="M11.3983 45.7928C10.1669 39.8701 8.93555 33.9474 7.69409 28.0146C8.75387 28.2047 9.81365 28.3948 10.8734 28.5849C11.045 34.3276 11.2166 40.0602 11.3983 45.7928Z" fill="url(#paint3_linear_599_11967)"/>
<path d="M2.67749 28.5951C4.35295 28.405 6.02841 28.2149 7.69378 28.0248C6.64409 23.8529 5.59441 19.691 4.54472 15.519L2.67749 28.5951Z" fill="url(#paint4_linear_599_11967)"/>
<path d="M4.54492 15.5182L12.5488 13.3472L10.8733 21.3309L4.54492 15.5182Z" fill="url(#paint5_linear_599_11967)"/>
<path d="M10.8735 28.5951V21.3317L4.55518 15.519C5.60486 19.691 6.65455 23.8529 7.70423 28.0248C8.75392 28.2149 9.8137 28.405 10.8735 28.5951Z" fill="url(#paint6_linear_599_11967)"/>
<path d="M12.549 13.3472L10.8735 21.3309L14.5575 30.8552L12.549 13.3472Z" fill="url(#paint7_linear_599_11967)"/>
<path d="M14.5575 30.8553L12.8114 42.5607L10.8735 28.5942L14.5575 30.8553Z" fill="url(#paint8_linear_599_11967)"/>
<path d="M10.8735 21.3315V28.5949L14.5575 30.8559L10.8735 21.3315Z" fill="url(#paint9_linear_599_11967)"/>
<path d="M14.5569 30.856L14.6175 42.8915L12.8108 42.5614L14.5569 30.856Z" fill="url(#paint10_linear_599_11967)"/>
<path d="M14.6182 42.8913L14.5576 30.8558L19.3519 27.6543L14.6182 42.8913Z" fill="url(#paint11_linear_599_11967)"/>
<path d="M19.3519 27.6543L14.5576 30.8458L18.504 11.5068C18.8674 15.6087 19.2207 19.7206 19.584 23.8225C19.584 23.8926 19.584 23.9726 19.5739 24.0426C19.5436 25.2832 19.473 26.4838 19.3519 27.6543Z" fill="url(#paint12_linear_599_11967)"/>
<path d="M29.3439 8.19531L18.5139 11.5168C18.8672 15.6988 19.2305 19.8807 19.5838 24.0626C22.8338 18.7702 26.0838 13.4778 29.3439 8.19531Z" fill="url(#paint13_linear_599_11967)"/>
<path d="M29.3441 8.19531C26.0941 13.4878 22.834 18.7702 19.584 24.0626C22.733 24.953 25.872 25.8335 29.0211 26.7239L29.3441 8.19531Z" fill="url(#paint14_linear_599_11967)"/>
<path d="M19.3516 47.0633C19.3516 40.5903 19.3516 34.1273 19.3516 27.6543L28.6171 48.9942C25.5286 48.3539 22.4401 47.7136 19.3516 47.0633Z" fill="url(#paint15_linear_599_11967)"/>
<path d="M28.6171 48.9942L19.3516 27.6544C19.4222 26.4538 19.503 25.2533 19.5736 24.0527C22.7227 24.9431 25.8616 25.8236 29.0107 26.714" fill="url(#paint16_linear_599_11967)"/>
<path d="M20.5734 5.17369C17.6363 8.71532 17.061 15.2383 17.061 15.2383L15.4058 14.7081C15.4058 14.7081 16.6169 7.89495 19.8064 3.95312" fill="#8216F5"/>
<path d="M21.896 2.00256C22.2089 1.84249 22.653 1.6424 23.2081 1.48232C23.3696 1.4323 25.1258 0.902055 26.771 1.30224C29.153 1.88251 31.4946 4.59376 32.2112 7.53511C32.4736 8.60561 32.4938 9.53604 32.4534 10.1563C31.7671 9.65609 31.0808 9.15586 30.4045 8.66564C30.4045 8.41552 30.3742 8.05535 30.2834 7.63516C30.2733 7.57513 30.2228 7.39505 30.1522 7.15494C29.8898 6.31455 29.5668 5.3241 28.7795 4.44369C27.7298 3.26314 26.0746 2.44277 23.4907 3.20312C23.2586 3.27315 23.0466 3.35319 23.0466 3.35319C22.9861 3.3832 22.9154 3.40321 22.8548 3.43322" fill="#8216F5"/>
<path d="M7.26061 17.1392C7.26061 16.629 7.39182 16.2288 7.67443 15.8886C8.09834 15.3884 8.69384 15.4284 9.06728 15.9587C9.49119 16.569 9.45082 17.5494 8.97644 18.1397C8.53235 18.6899 7.8662 18.6399 7.51294 18.0196C7.34136 17.7295 7.24042 17.4093 7.26061 17.1392Z" fill="#8216F5"/>
<path d="M24.5804 12.7173C24.5703 13.1175 24.4694 13.5377 24.1363 13.8678C23.7225 14.288 23.1472 14.248 22.804 13.7678C22.37 13.1675 22.37 12.1571 22.8141 11.5868C23.2481 11.0165 23.8234 11.0265 24.2574 11.5968C24.4694 11.8669 24.5703 12.2071 24.5804 12.7173Z" fill="#8216F5"/>
<path d="M7.58374 14.708C7.58374 14.708 10.2281 0.22127 16.6878 0.0111732C23.1474 -0.198924 23.4401 6.50417 24.1365 9.8157L22.4408 10.3359C22.4408 10.3359 21.9362 0.711498 16.7685 1.5819C11.6008 2.4523 9.42069 14.2077 9.42069 14.2077L7.58374 14.708Z" fill="#8216F5"/>
<path d="M43.2526 30.8455L40.81 28.2643C41.4863 26.9637 42.1726 25.6731 42.8488 24.3725C42.3341 20.5908 41.8193 16.809 41.3046 13.0273C40.4063 12.1169 39.4979 11.1964 38.5996 10.286C36.9746 10.6662 35.3597 11.0564 33.7347 11.4366C32.2712 10.3561 30.8077 9.27556 29.3543 8.18506L28.6377 48.9839C31.5849 48.5937 34.522 48.2035 37.4692 47.8134C39.5585 47.5332 41.6377 47.2631 43.7269 46.983C44.1408 45.9325 44.5546 44.872 44.9684 43.8215C44.383 39.4995 43.8178 35.1775 43.2526 30.8455Z" fill="url(#paint17_linear_599_11967)"/>
<path d="M29.3438 8.19531L33.6334 11.3468L34.4106 41.6007C34.4106 41.6007 34.5014 42.7012 34.027 43.0114C32.2304 45.0023 30.4238 47.0032 28.6272 48.9941C28.8593 35.3979 29.1016 21.7916 29.3438 8.19531Z" fill="url(#paint18_linear_599_11967)"/>
<path d="M43.2519 30.8456C42.4344 29.9852 41.6269 29.1248 40.8094 28.2644C41.4856 26.9638 42.172 25.6732 42.8482 24.3726C42.3234 20.3108 41.7884 16.2489 41.2636 12.187C40.3754 11.5567 39.4771 10.9164 38.5889 10.2861C37.0346 10.6563 35.4701 11.0265 33.9158 11.3966C33.9259 11.5567 33.936 11.7268 33.9561 11.8869C34.047 13.1274 34.1176 14.358 34.1681 15.5686C35.2077 15.3185 36.2473 15.0683 37.2869 14.8182C37.8218 15.3585 38.3568 15.8887 38.8917 16.429C39.0229 18.3198 39.1541 20.2107 39.2853 22.1016C38.8009 22.8319 38.3265 23.5623 37.842 24.2926C36.7418 24.3926 35.6417 24.4927 34.5415 24.5927C34.592 26.0134 34.6526 27.4441 34.703 28.8647C34.7535 29.7151 34.8141 30.5555 34.8645 31.4059C36.0151 31.3258 37.1557 31.2558 38.3063 31.1758C38.8109 31.746 39.3156 32.3063 39.8203 32.8766C39.9616 34.6474 40.113 36.4182 40.2543 38.189C39.9111 38.7293 39.5679 39.2595 39.2248 39.7998C37.7411 40.0799 36.2574 40.36 34.7737 40.6401C34.7535 40.9003 34.7636 41.2304 34.8141 41.6006C34.8645 41.9708 34.9554 42.2809 35.0462 42.531C37.9328 44.0117 40.8195 45.5024 43.7061 46.9831C44.1199 45.9326 44.5338 44.8721 44.9476 43.8216C44.3824 39.4996 43.8171 35.1776 43.2519 30.8456Z" fill="url(#paint19_linear_599_11967)"/>
<path d="M34.542 24.5923C34.3503 24.6123 34.1686 24.6323 33.9768 24.6523C34.0374 26.9434 34.0979 29.2344 34.1484 31.5155C34.3906 31.4655 34.6228 31.4154 34.865 31.3754C34.7641 29.1144 34.6531 26.8533 34.542 24.5923Z" fill="#3D00BD"/>
<path d="M33.9161 11.3962C33.8253 11.3762 33.7244 11.3662 33.6335 11.3462C33.6739 12.7969 33.7042 14.2475 33.7446 15.6982C33.8859 15.6482 34.0272 15.6082 34.1584 15.5581C34.0877 14.1775 33.9969 12.7869 33.9161 11.3962Z" fill="#3D00BD"/>
<path d="M35.9548 43.001C35.652 42.8409 35.3492 42.6808 35.0464 42.5208C34.9556 41.9005 34.8648 41.2702 34.7739 40.6499C34.6427 40.6599 34.5014 40.6699 34.3702 40.6799C34.3904 41.0401 34.4005 41.3902 34.4207 41.7504C34.4207 41.8204 34.4207 41.9205 34.4106 42.0305C34.4005 42.1606 34.3904 42.2706 34.3803 42.3107C34.3298 42.5908 34.1381 42.8609 34.0472 42.981C32.2405 44.9819 30.4339 46.9828 28.6272 48.9937C33.6637 48.3234 38.6901 47.6631 43.7265 46.9928C41.1225 45.6622 38.5387 44.3316 35.9548 43.001Z" fill="#3D00BD"/>
<defs>
<linearGradient id="paint0_linear_599_11967" x1="10.8684" y1="36.7263" x2="19.3562" y2="36.7263" gradientUnits="userSpaceOnUse">
<stop stop-color="#7105F5"/>
<stop offset="1" stop-color="#5D04E0"/>
</linearGradient>
<linearGradient id="paint1_linear_599_11967" x1="3.17248" y1="33.2295" x2="7.6339" y2="46.3697" gradientUnits="userSpaceOnUse">
<stop stop-color="#FF703C"/>
<stop offset="1" stop-color="#FF2645"/>
</linearGradient>
<linearGradient id="paint2_linear_599_11967" x1="6.11768" y1="27.7096" x2="-1.42782" y2="42.0597" gradientUnits="userSpaceOnUse">
<stop stop-color="#FF703C"/>
<stop offset="1" stop-color="#FF2645"/>
</linearGradient>
<linearGradient id="paint3_linear_599_11967" x1="7.47334" y1="42.8286" x2="12.3476" y2="28.6436" gradientUnits="userSpaceOnUse">
<stop stop-color="#FFBA47"/>
<stop offset="1" stop-color="#FF703C"/>
</linearGradient>
<linearGradient id="paint4_linear_599_11967" x1="1.31541" y1="16.9462" x2="6.44628" y2="28.5722" gradientUnits="userSpaceOnUse">
<stop stop-color="#FFBA47"/>
<stop offset="1" stop-color="#FF703C"/>
</linearGradient>
<linearGradient id="paint5_linear_599_11967" x1="4.54926" y1="17.3395" x2="12.5489" y2="17.3395" gradientUnits="userSpaceOnUse">
<stop stop-color="#FFBA47"/>
<stop offset="1" stop-color="#FF942C"/>
</linearGradient>
<linearGradient id="paint6_linear_599_11967" x1="8.62357" y1="28.7885" x2="7.451" y2="15.2674" gradientUnits="userSpaceOnUse">
<stop stop-color="#FFBA47"/>
<stop offset="1" stop-color="#FF703C"/>
</linearGradient>
<linearGradient id="paint7_linear_599_11967" x1="9.64173" y1="25.9761" x2="17.3979" y2="18.1514" gradientUnits="userSpaceOnUse">
<stop stop-color="#FFBA47"/>
<stop offset="1" stop-color="#FF703C"/>
</linearGradient>
<linearGradient id="paint8_linear_599_11967" x1="10.2643" y1="35.44" x2="14.1243" y2="35.7807" gradientUnits="userSpaceOnUse">
<stop stop-color="#FF942C"/>
<stop offset="0.9986" stop-color="#FF703C"/>
</linearGradient>
<linearGradient id="paint9_linear_599_11967" x1="11.6952" y1="30.1435" x2="13.6993" y2="22.0342" gradientUnits="userSpaceOnUse">
<stop stop-color="#FFBA47"/>
<stop offset="1" stop-color="#FF703C"/>
</linearGradient>
<linearGradient id="paint10_linear_599_11967" x1="13.1366" y1="42.6417" x2="15.9646" y2="31.1988" gradientUnits="userSpaceOnUse">
<stop stop-color="#FF703C"/>
<stop offset="1" stop-color="#FF2645"/>
</linearGradient>
<linearGradient id="paint11_linear_599_11967" x1="14.1902" y1="35.0349" x2="18.6706" y2="35.4303" gradientUnits="userSpaceOnUse">
<stop stop-color="#FF942C"/>
<stop offset="0.9986" stop-color="#FF703C"/>
</linearGradient>
<linearGradient id="paint12_linear_599_11967" x1="15.4213" y1="21.0871" x2="19.9032" y2="21.4827" gradientUnits="userSpaceOnUse">
<stop stop-color="#FF942C"/>
<stop offset="0.9986" stop-color="#FFBA47"/>
</linearGradient>
<linearGradient id="paint13_linear_599_11967" x1="19.1616" y1="10.871" x2="25.9625" y2="17.7322" gradientUnits="userSpaceOnUse">
<stop stop-color="#FFBA47"/>
<stop offset="1" stop-color="#FF942C"/>
</linearGradient>
<linearGradient id="paint14_linear_599_11967" x1="22.2169" y1="12.2702" x2="30.1211" y2="26.0818" gradientUnits="userSpaceOnUse">
<stop stop-color="#FFBA47"/>
<stop offset="1" stop-color="#FF703C"/>
</linearGradient>
<linearGradient id="paint15_linear_599_11967" x1="8.78133" y1="21.0651" x2="32.7687" y2="58.6966" gradientUnits="userSpaceOnUse">
<stop offset="0.3905" stop-color="#FF703C"/>
<stop offset="0.7912" stop-color="#FF4142"/>
<stop offset="1" stop-color="#FF2645"/>
</linearGradient>
<linearGradient id="paint16_linear_599_11967" x1="35.3545" y1="48.1023" x2="21.4326" y2="25.8898" gradientUnits="userSpaceOnUse">
<stop stop-color="#FFBA47"/>
<stop offset="1" stop-color="#FF703C"/>
</linearGradient>
<linearGradient id="paint17_linear_599_11967" x1="31.7641" y1="10.2116" x2="38.5068" y2="54.8363" gradientUnits="userSpaceOnUse">
<stop offset="0.0333474" stop-color="#FFBA47"/>
<stop offset="0.1506" stop-color="#FF9345"/>
<stop offset="0.2692" stop-color="#FF7343"/>
<stop offset="0.3837" stop-color="#FF5C42"/>
<stop offset="0.4913" stop-color="#FF4E41"/>
<stop offset="0.5848" stop-color="#FF4941"/>
</linearGradient>
<linearGradient id="paint18_linear_599_11967" x1="31.5192" y1="48.9944" x2="31.5192" y2="8.19247" gradientUnits="userSpaceOnUse">
<stop offset="0.257" stop-color="#8216F5"/>
<stop offset="1" stop-color="#3D00BD"/>
</linearGradient>
<linearGradient id="paint19_linear_599_11967" x1="39.4359" y1="46.9961" x2="39.4359" y2="10.2886" gradientUnits="userSpaceOnUse">
<stop offset="0.257" stop-color="#8216F5"/>
<stop offset="1" stop-color="#3D00BD"/>
</linearGradient>
</defs>
</svg>
