<svg width="50" height="50" viewBox="0 0 50 50" fill="none" xmlns="http://www.w3.org/2000/svg">
<g clip-path="url(#clip0_271_8254)">
<path d="M12.8185 27.6248L6.91895 44.3536L12.8545 44.2958L20.1746 27.6248H12.8185Z" fill="#80AAFF"/>
<path d="M20.1739 27.6248L15.5674 45.2279L20.2068 49.0401L25.2746 34.2122V27.6248H20.1739Z" fill="#80AAFF"/>
<path d="M18.5722 27.6248L12.8545 44.2958L14.4152 44.2807L15.568 45.2279L21.6055 27.6248H18.5722Z" fill="#EAF1FF"/>
<path d="M37.732 27.6248L43.6316 44.3536L37.6961 44.2958L30.376 27.6248H37.732Z" fill="#6680FF"/>
<path d="M30.3761 27.6248L34.9826 45.2279L30.3432 49.0401L25.2754 34.2122V27.6248H30.3761Z" fill="#6680FF"/>
<path d="M31.9786 27.6248L37.6963 44.2958L36.1356 44.2807L34.9828 45.2279L28.9453 27.6248H31.9786Z" fill="#B3CCFF"/>
<path d="M25.2751 1.56641L24.2549 17.4743L25.2751 32.7764C33.8935 32.7764 40.8801 25.7899 40.8801 17.1715C40.8801 8.553 33.8935 1.56641 25.2751 1.56641Z" fill="#EAF1FF"/>
<path d="M9.66992 17.1715C9.66992 25.7899 16.6565 32.7764 25.275 32.7764V1.56641C16.6565 1.56641 9.66992 8.553 9.66992 17.1715Z" fill="#F9F9F9"/>
<path d="M42.3157 17.1717C42.3157 7.776 34.6717 0.13208 25.276 0.13208L24.2559 1.15226L25.276 3.00124C33.0896 3.00124 39.4465 9.35805 39.4465 17.1717C39.4465 24.9853 33.0896 31.3421 25.276 31.3421L24.2559 32.7767L25.276 34.2113C34.6717 34.2113 42.3157 26.5674 42.3157 17.1717Z" fill="#FDAE02"/>
<path d="M25.2759 31.3421C17.4623 31.3421 11.1055 24.9853 11.1055 17.1717C11.1055 9.35805 17.4623 3.00124 25.2759 3.00124V0.13208C15.8802 0.13208 8.23633 7.776 8.23633 17.1717C8.23633 26.5674 15.8802 34.2113 25.2759 34.2113V31.3421Z" fill="#FDCB02"/>
<path d="M33.8506 11.4896L29.3839 12.9501L25.275 9.47424L24.2549 16.454L25.275 23.6588H33.8506V11.4896Z" fill="#FD9002"/>
<path d="M25.2748 9.47424L21.1659 12.9501L16.6992 11.4896V23.6588H25.2748V9.47424Z" fill="#FDAE02"/>
</g>
<defs>
<clipPath id="clip0_271_8254">
<rect width="48.9078" height="48.9078" fill="white" transform="translate(0.821289 0.13208)"/>
</clipPath>
</defs>
</svg>
