<svg width="21" height="21" viewBox="0 0 21 21" fill="none" xmlns="http://www.w3.org/2000/svg">
<path d="M1.65332 9.6868C1.64988 11.0067 1.95825 12.3087 2.55332 13.4868C3.25889 14.8985 4.34357 16.086 5.68587 16.9161C7.02817 17.7462 8.57508 18.1862 10.1533 18.1868C11.4732 18.1902 12.7752 17.8819 13.9533 17.2868L19.6533 19.1868L17.7533 13.4868C18.3484 12.3087 18.6568 11.0067 18.6533 9.6868C18.6527 8.10855 18.2127 6.56165 17.3826 5.21935C16.5525 3.87705 15.3651 2.79236 13.9533 2.0868C12.7752 1.49173 11.4732 1.18335 10.1533 1.1868H9.65332C7.56897 1.30179 5.60028 2.18156 4.12418 3.65766C2.64808 5.13375 1.76831 7.10245 1.65332 9.1868V9.6868Z" stroke="#21305A" stroke-width="1.8" stroke-linecap="round" stroke-linejoin="round"/>
</svg>
